<svg xmlns="http://www.w3.org/2000/svg" width="296.926mm" xmlns:xlink="http://www.w3.org/1999/xlink" viewBox="0 0 1169 826" baseProfile="tiny" height="209.804mm" xmlnscc="http://creativecommons.org/ns#"><defs/><g stroke-linecap="square" fill="none" stroke="black" fill-rule="evenodd" stroke-width="1" stroke-linejoin="bevel"><g stroke-linecap="square" font-family="Gulim" font-size="12.5" font-style="normal" font-weight="400" fill="none" stroke="#000000" transform="matrix(1,0,0,1,0,0)" stroke-opacity="1" stroke-width="1" stroke-linejoin="bevel"/><g stroke-linecap="square" font-family="Gulim" font-size="12.5" font-style="normal" font-weight="400" fill="none" stroke="#000000" transform="matrix(1,0,0,1,0,0)" stroke-opacity="1" stroke-width="1" stroke-linejoin="bevel"/><g stroke-linecap="square" font-family="Gulim" font-size="12.5" font-style="normal" font-weight="400" fill="none" stroke="#000000" transform="matrix(3.93333,0,0,3.93333,0,0)" stroke-opacity="1" stroke-width="1" stroke-linejoin="bevel"/><g stroke-linecap="square" font-family="Gulim" font-size="12.5" font-style="normal" font-weight="400" fill="none" stroke="#000000" transform="matrix(0.999067,0,0,0.999067,0,0)" stroke-opacity="1" stroke-width="1" stroke-linejoin="bevel"/><g font-family="Gulim" fill-opacity="1" font-size="12.5" font-style="normal" font-weight="400" fill="#ffffff" stroke="none" transform="matrix(0.999067,0,0,0.999067,0,0)"><path fill-rule="evenodd" vector-effect="none" d="M-2,-2 L1172,-2 L1172,829 L-2,829 L-2,-2"/></g><g stroke-linecap="square" font-family="Gulim" font-size="12.5" font-style="normal" font-weight="400" fill="none" stroke="#000000" transform="matrix(0.999067,0,0,0.999067,0,0)" stroke-opacity="1" stroke-width="1" stroke-linejoin="bevel"/><g stroke-linecap="square" font-family="Gulim" font-size="12.5" font-style="normal" font-weight="400" fill="none" stroke="#000000" transform="matrix(3.93333,0,0,3.93333,0,0)" stroke-opacity="1" stroke-width="1" stroke-linejoin="bevel"/><g stroke-linecap="square" font-family="Gulim" font-size="12.5" font-style="normal" font-weight="400" fill="none" stroke="#000000" transform="matrix(3.93333,0,0,3.93333,0,0)" stroke-opacity="1" stroke-width="1" stroke-linejoin="bevel"/><g stroke-linecap="square" font-family="Gulim" font-size="12.5" font-style="normal" font-weight="400" fill="none" stroke="#000000" transform="matrix(3.93333,0,0,3.93333,0,0)" stroke-opacity="1" stroke-width="1" stroke-linejoin="bevel"/><g stroke-linecap="square" font-family="Gulim" font-size="12.5" font-style="normal" font-weight="400" fill="none" stroke="#000000" transform="matrix(3.93333,0,0,3.93333,0,0)" stroke-opacity="1" stroke-width="1" stroke-linejoin="bevel"/><g stroke-linecap="square" font-family="Gulim" font-size="12.5" font-style="normal" font-weight="400" fill="none" stroke="#000000" transform="matrix(3.93333,0,0,3.93333,-135.877,-47.3377)" stroke-opacity="1" stroke-width="1" stroke-linejoin="bevel"/><g font-family="Gulim" fill-opacity="1" font-size="12.5" font-style="normal" font-weight="400" fill="#ffffff" stroke="none" transform="matrix(3.93333,0,0,3.93333,-135.877,-47.3377)"><path fill-rule="evenodd" vector-effect="none" d="M0,0 L341.573,0 L341.573,232.355 L0,232.355 L0,0"/></g><g stroke-linecap="square" font-family="Gulim" font-size="12.5" font-style="normal" font-weight="400" fill="none" stroke="#000000" transform="matrix(3.93333,0,0,3.93333,-135.877,-47.3377)" stroke-opacity="1" stroke-width="1" stroke-linejoin="bevel"/><g stroke-linecap="square" font-family="Gulim" font-size="12.5" font-style="normal" font-weight="400" fill="none" stroke="#000000" transform="matrix(3.93333,0,0,3.93333,-135.877,-47.3377)" stroke-opacity="1" stroke-width="1" stroke-linejoin="bevel"/><g font-family="Gulim" fill-opacity="0" font-size="12.5" font-style="normal" font-weight="400" fill="#000000" stroke="none" transform="matrix(0.999067,0,0,0.999067,-135.877,-47.3377)"><rect y="0" width="1345" x="0" height="915"/></g><g stroke-linecap="square" font-family="Gulim" font-size="12.5" font-style="normal" font-weight="400" fill="none" stroke="#000000" transform="matrix(0.999067,0,0,0.999067,-135.877,-47.3377)" stroke-opacity="1" stroke-width="1" stroke-linejoin="bevel"/><g stroke-linecap="square" font-family="Gulim" fill-opacity="1" font-size="12.5" font-style="normal" font-weight="400" fill="#b2df8a" stroke="#232323" transform="matrix(0.999067,0,0,0.999067,-135.877,-47.3377)" stroke-opacity="1" stroke-width="1.02362" stroke-linejoin="bevel"><path fill-rule="evenodd" vector-effect="none" d="M733.317,77.7793 L733.905,81.9456 L734.315,83.4946 L735.873,87.358 L736.531,91.582 L736.904,96.078 L738.659,101.095 L739.069,102.26 L740.249,105.604 L743.558,110.483 L743.929,111.107 L747.939,115.175 L748.781,115.725 L754.052,119.886 L754.474,120.238 L758.246,122.218 L763.058,121.762 L768.172,120.182 L772.74,119.674 L777.297,116.792 L782.068,117.079 L786.933,116.286 L789.769,114.959 L791.735,111.27 L796.49,110.409 L796.71,110.306 L801.177,108.624 L805.964,110.116 L807.57,110.385 L810.735,112.066 L814.171,115.218 L815.666,118.065 L817.488,115.101 L819.318,110.278 L820.454,107.225 L823.996,105.52 L824.662,105.983 L825.157,106.328 L829.989,107.715 L834.809,109.09 L840.125,109.636 L844.218,109.838 L845.546,110.448 L849.162,112.392 L852.659,115.324 L853.741,117.399 L853.986,120.089 L853.668,121.469 L853.733,123.334 L857.637,125.088 L858.538,126.654 L859.569,129.68 L861.288,134.332 L861.204,139.481 L863.283,143.697 L864.684,143.822 L868.449,145.275 L869.559,149.174 L872.989,151.657 L875.918,147.681 L876.979,143.582 L877.866,142.729 L879.778,139.017 L879.842,139.086 L882.458,140.638 L887.381,141.796 L892.113,140.648 L894.446,143.977 L894.397,149.005 L896.895,151.771 L902.015,152.414 L902.845,153.415 L900.935,156.391 L900.903,158.164 L901.536,158.42 L906.385,159.998 L911.331,162.407 L912.212,163.579 L914.106,167.718 L914.214,172.525 L913.514,177.304 L913.184,182.371 L914.061,186.927 L914.201,191.896 L915.852,194.296 L916.587,196.486 L915.767,197.31 L915.854,198.486 L917.454,201.143 L915.498,202.58 L916.01,204.144 L916.432,206.032 L915.656,207.383 L913.352,210.748 L910.76,212.747 L910.23,215.553 L911.225,216.394 L914.502,220.285 L915.878,223.763 L917.609,225.186 L917.873,230.007 L916.814,234.682 L915.781,238.848 L915.816,239.812 L915.92,240.399 L916.239,244.67 L915.842,249.381 L915.081,251.049 L909.74,250.056 L906.681,247.785 L905.278,246.776 L902.051,243.89 L900.592,243.412 L898.709,244.294 L896.53,245.517 L891.238,247.279 L892.197,247.871 L892.66,249.424 L892.218,253.799 L894.07,258.507 L897.055,260.355 L901.672,263.454 L902.384,268.087 L906.554,272.369 L907.232,272.87 L905.737,276.403 L905.464,277.652 L905.446,282.75 L905.274,287.288 L901.45,291.542 L901.567,291.72 L902.014,291.982 L901.196,293.878 L898.27,297.4 L897.179,301.696 L895.838,302.243 L893.271,306.419 L891.294,309.709 L889.844,311.199 L890.924,315.909 L892.036,316.539 L897.188,319.094 L901.1,320.851 L901.496,323.325 L906.797,319.457 L911.216,317.693 L916.527,315.268 L917.209,315.942 L919.732,320.588 L920.57,325.422 L920.607,325.895 L925.582,328.185 L930.364,329.13 L935.251,326.855 L939.794,327.736 L941.566,330.404 L939.523,332.432 L934.847,334.006 L933.331,335.057 L929.12,335.021 L927.943,340.384 L927.333,344.495 L924.605,345.188 L920.454,346.98 L920.105,349.581 L915.197,350.028 L915.122,349.119 L912.426,343.781 L910.552,341.741 L907.42,339.472 L906.138,338.36 L900.754,338.044 L896.512,335.519 L895.5,334.888 L894.937,334.913 L891.024,335.375 L889.773,333.507 L886.924,332.985 L882.559,335.613 L882.383,336.925 L882.619,338.703 L882.746,340.208 L882.248,341.09 L877.573,343.822 L876.763,344.782 L875.179,344.426 L872.694,342.887 L867.842,341.139 L863.206,339.316 L860.732,334.723 L857.946,334.161 L855.828,330.107 L857.676,325.276 L855.083,320.393 L853.539,317.408 L852.654,315.64 L853.314,310.936 L853.77,310.494 L852.828,309.942 L848.636,306.079 L843.67,302.196 L841.287,301.375 L842.63,296.673 L844.243,293.823 L844.156,292.785 L842.306,291.858 L839.001,291.68 L834.904,291.909 L834.527,291.942 L834.283,291.901 L832.81,291.915 L829.748,294.941 L824.902,294.82 L820.279,292.65 L818.713,291.657 L818.011,287.059 L815.626,287.204 L815.445,287.417 L808.615,290.034 L806.944,286.471 L805.803,286.545 L800.947,286.02 L796.017,284.22 L795.027,282.084 L791.45,277.655 L791.069,277.558 L790.665,277.792 L787.757,277.449 L786.834,276.454 L785.427,272.581 L786.072,267.981 L781.977,263.387 L781.915,263.162 L781.12,258.446 L777.233,256.154 L772.133,256.622 L767.6,256.635 L767.042,253.65 L762.942,252.561 L760.842,253.697 L758.296,258.562 L757.875,258.806 L753.366,260.803 L748.622,260.674 L747.061,258.348 L743.776,255.465 L743.941,253.357 L743.845,252.669 L740.802,248.74 L738.991,246.971 L734.287,247.171 L732.51,248.921 L730.809,248.869 L729.488,248.149 L724.627,244.891 L719.933,245.204 L718.344,244.007 L715.151,241.044 L713.081,239.345 L710.285,235.051 L707.771,234.455 L705.591,231.361 L703.337,229.714 L700.818,227.294 L695.976,227.088 L691.286,228.241 L691.309,228.388 L691.281,228.513 L691.303,228.671 L693.784,229.821 L690.835,232.406 L686.395,230.543 L685.384,229.709 L685.028,224.945 L685.452,220.097 L686.529,217.796 L686.373,216.971 L686.548,216.821 L689.036,215.462 L689.377,215.484 L691.405,215.807 L691.748,215.215 L691.266,214.852 L687.976,210.666 L687.553,205.762 L691.396,202.442 L691.224,201.187 L691.297,200.944 L691.257,197.6 L691.605,197.111 L692.436,196.178 L695.196,191.52 L696.254,190.661 L701.471,187.05 L701.801,186.728 L705.29,182.025 L704.608,177.245 L703.517,172.357 L701.056,167.498 L705.951,163.9 L706.047,162.711 L708.976,157.941 L709.307,153.173 L710.479,150.345 L712.658,148.511 L715.194,147.856 L720.004,144.461 L721.277,143.554 L721.677,138.986 L719.72,135.078 L717.443,134.007 L715.654,129.37 L715.133,127.87 L710.179,126.483 L707.132,124.194 L707.231,119.798 L710.527,115.577 L711.208,114.878 L712.527,110.191 L713.308,105.562 L715.314,102.641 L715.87,100.756 L719.319,95.965 L719.965,96.0842 L724.087,95.7426 L724.787,94.2044 L724.688,92.66 L724.788,91.7232 L724.985,90.6813 L727.158,86.4778 L728.783,81.5822 L729.566,78.4317 L732.498,76.4018 L733.416,77.226 L733.317,77.7793" class="Chungju"/><path fill-rule="evenodd" vector-effect="none" d="M858.884,47.059 L863.092,47.4476 L863.305,47.6239 L867.918,48.4969 L872.964,50.135 L875.008,52.275 L877.551,53.5716 L879.349,57.2196 L879.898,62.8665 L880.848,66.9806 L882.361,67.4536 L886.491,71.5561 L887.566,72.1672 L888.423,76.1297 L886.783,77.1011 L884.567,82.1715 L886.018,85.8952 L887.456,90.8434 L892.159,90.5967 L896.846,90.4431 L897.32,90.3294 L901.444,88.6617 L906.424,88.1339 L911.058,87.9322 L915.078,85.4049 L915.706,84.808 L920.515,83.6944 L925.261,81.1342 L926.124,80.8069 L929.001,76.026 L929.981,71.1133 L930.055,70.8964 L932.991,66.4905 L934.827,62.2624 L935.049,61.6055 L936.52,61.9153 L940.089,64.5472 L944.167,66.5962 L944.414,68.2184 L949.186,71.4251 L954.422,73.9577 L958.758,72.3333 L960.455,70.7502 L961.476,66.3237 L962.252,61.7171 L963.632,60.4249 L968.176,56.8996 L968.495,56.6549 L973.047,53.6407 L975.005,51.9715 L978.266,51.6979 L978.993,52.2083 L982.579,54.588 L982.445,55.8916 L982.622,56.2454 L984.606,56.9764 L987.377,61.4622 L987.653,62.0988 L992.278,65.9841 L996.919,65.8566 L1001.75,64.2117 L1003.36,66.6065 L1005.89,71.3643 L1006.52,72.9008 L1009.37,76.1458 L1011.29,78.4194 L1016.23,77.1245 L1019.71,75.9314 L1020.9,74.3651 L1025.74,73.0189 L1030.38,72.1522 L1033.12,70.9551 L1035.22,68.501 L1039.96,70.7164 L1040.79,71.2904 L1044.82,72.9159 L1044.59,74.6661 L1043.99,76.0608 L1043.39,80.8467 L1039.82,84.5947 L1039.51,85.7116 L1035.91,85.4343 L1035.62,85.6378 L1035.11,85.6994 L1035.2,87.9194 L1035.08,88.4308 L1035.17,89.8067 L1034.87,90.3007 L1033.69,91.3106 L1030.02,92.3131 L1025.71,95.1884 L1026.53,100.137 L1025.33,102.725 L1020.18,102.397 L1015.99,101.937 L1012.72,105.887 L1011.19,109.222 L1010.01,109.548 L1011.75,113.542 L1012.92,114.813 L1015.09,119.165 L1016.21,120.019 L1021.09,122.16 L1024.36,123.843 L1025.64,125.614 L1028.3,128.614 L1030.23,133.488 L1030.38,137.502 L1030.59,138.359 L1032.83,142.985 L1030.96,147.802 L1030.05,149.917 L1025.32,151.131 L1021.05,147.152 L1020.29,145.352 L1016.62,142.805 L1015.71,139.358 L1011.16,141.024 L1010.58,143.427 L1006.24,148.115 L1006.6,150.435 L1008.08,152.891 L1009.75,157.331 L1011.24,158.039 L1010.93,159.415 L1006.43,161.467 L1004.76,162.139 L1001.67,166.551 L997.715,166.864 L996.62,167.502 L995.926,171.784 L992.033,174.155 L988.739,176.448 L987.278,178.486 L985.736,181.242 L985.748,186.065 L985.178,190.842 L987.365,192.751 L988.515,195.636 L992.588,199.867 L996.976,200.372 L1000.19,205.236 L1001.8,207.944 L1003.94,209.859 L1006.22,214.608 L1006.49,216.155 L1006.44,216.375 L1006.46,219.684 L1006.3,224.528 L1006.44,227.064 L1007.22,229.236 L1007.6,233.988 L1009.34,238.766 L1011.32,242.143 L1011.09,242.597 L1010.29,243.533 L1010.48,248.124 L1006.43,252.501 L1006.18,252.841 L1001.38,252.996 L1000.4,257.738 L996.791,259.014 L995.439,262.457 L995.687,267.15 L996.083,272.298 L997.101,273.701 L999.297,276.884 L1000.53,281.695 L999.727,286.395 L1001.8,290.44 L1002.37,291.456 L1001.64,294.16 L999.721,295.987 L998.921,300.623 L997.571,305.714 L996.813,306.013 L995.338,310.272 L996.645,315.019 L997.231,315.601 L996.828,316.585 L991.885,318.635 L986.351,316.665 L982.374,318.82 L982.332,319.893 L982.585,321.685 L984.161,325.066 L984.95,329.562 L985.49,335.201 L985.575,339.022 L982.08,341.021 L977.411,339.499 L975.863,338.766 L972.797,337.874 L967.813,337.541 L963.206,335.118 L958.308,335.149 L953.788,334.554 L950.886,333.785 L948.737,329.746 L947.017,329.224 L944.059,327.51 L939.392,327.679 L934.667,327.006 L929.912,329.264 L927.581,329.128 L925.084,328.13 L920.411,325.159 L920.506,324.46 L920.435,323.778 L919.636,319.653 L915.389,316.276 L910.507,318.061 L905.814,320.582 L901.233,322.011 L898.203,319.229 L896.483,318.634 L891.686,316.402 L889.425,314.275 L890.649,309.94 L892.376,309.228 L893.951,305.178 L896.843,301.979 L897.515,300.584 L899.378,295.702 L901.769,293.545 L901.931,290.902 L904.915,285.97 L905.501,281.298 L906.196,279.888 L905.978,279.371 L905.499,276.655 L906.635,275.74 L906.026,271.941 L905.705,271.88 L902.111,266.622 L901.298,262.545 L901.047,262.184 L896.401,260.033 L893.117,257.585 L892.213,252.629 L892.44,248.021 L891.238,247.279 L892.383,247.222 L897.406,245.038 L901.662,243.387 L906.339,247.439 L908.755,249.407 L912.022,250.741 L915.839,249.397 L916.165,247.168 L916.259,242.549 L915.942,238.046 L917.152,233.058 L918.145,228.715 L917.526,223.859 L915.479,223.707 L911.553,219.369 L910.803,215.947 L910.186,214.269 L911.225,212.768 L915.464,209.737 L916.104,206.898 L916.767,205.017 L915.402,203.871 L915.969,202.219 L916.652,200.116 L915.282,198.237 L915.767,197.31 L916.144,194.903 L915.538,193.708 L913.842,190.308 L913.413,185.465 L913.568,181.015 L914.037,175.986 L913.822,171.454 L914.646,166.656 L910.62,162.267 L910.229,162.036 L905.996,159.731 L901.076,158.204 L900.935,156.391 L902.104,154.422 L902.015,152.414 L901.07,152.34 L899.149,152.604 L897.143,152.384 L896.325,150.977 L893.417,147.614 L893.874,142.919 L891.534,141.466 L886.96,141.582 L882.181,140.574 L877.495,143.449 L876.979,143.582 L875.785,148.75 L872.248,151.657 L869.311,147.694 L866.919,144.359 L863.07,143.672 L861.488,142.733 L861.666,137.815 L861.409,133.279 L859.241,128.381 L858.276,126.393 L857.18,123.807 L853.535,123.092 L853.668,121.469 L853.899,118.818 L853.369,117.159 L852.169,114.19 L848.348,112.004 L843.974,109.832 L839.221,110.04 L837.604,109.325 L834.431,109.188 L830.981,104.431 L833.547,99.7996 L833.999,94.6153 L834.552,94.377 L834.241,91.2324 L833.424,89.4479 L832.526,85.1628 L833.122,80.2329 L830.363,73.3731 L828.326,70.7667 L828.783,65.8492 L829.946,63.9451 L834.669,59.6489 L839.757,57.9608 L840.756,56.668 L844.445,52.6187 L846.326,51.8063 L849.275,51.18 L853.859,47.4143 L855.268,47.2691 L858.389,46.5154 L858.884,47.059" class="Jecheon"/><path fill-rule="evenodd" vector-effect="none" d="M760.514,476.937 L762.26,479.2 L763.332,481.098 L762.354,485.1 L762.145,485.739 L762.263,486.223 L763.988,490.18 L766.846,494.748 L767.075,494.939 L771.895,496.751 L774.533,499.596 L776.869,501.253 L782.515,500.336 L786.878,502.066 L792.228,501.609 L796.542,503.714 L796.511,504.621 L801.186,509.089 L803.299,514.7 L802.24,518.54 L804.65,523.587 L805.223,524.469 L810.017,526.056 L813.589,528.138 L814.824,528.579 L815.756,528.065 L816.126,528.183 L818.365,533.111 L819.642,537.191 L819.526,537.534 L819.583,537.899 L819.491,538.184 L819.547,541.34 L820.448,542.475 L819.424,546.571 L818.578,547.382 L814.611,550.421 L812.669,552.068 L809.388,553.068 L805.122,556.397 L805.034,557.077 L805.269,560.017 L807.634,561.772 L807.53,566.585 L806.769,571.371 L807.43,575.984 L806.41,580.787 L805.168,582.494 L803.904,585.916 L803.851,590.187 L804.838,595.006 L805.6,599.057 L808.84,600.01 L805.832,604.516 L805.121,605.419 L803.811,609.303 L800.265,612.886 L798.838,614.405 L799.574,618.889 L800.523,620.618 L805.478,621.738 L806.487,623.624 L809.607,628.618 L807.767,633.221 L805.209,633.922 L802.81,632.839 L800.274,632.78 L795.597,632.645 L794.846,633.246 L790.775,633.764 L786.002,633.236 L785.515,633.061 L784.481,633.175 L781.701,633.145 L781.206,632.056 L776.858,628.336 L776.367,628.265 L771.75,627.139 L766.927,626.768 L762.121,625.372 L760.416,623.294 L757.43,623.551 L756.912,623.679 L756.584,623.589 L756.187,623.626 L755.632,623.615 L752.53,622.883 L747.761,622.479 L742.697,621.192 L738.145,623.29 L737.041,623.633 L733.918,623.492 L733.377,622.899 L728.734,619.451 L723.948,619.377 L722.384,618.729 L719.125,614.97 L718.787,614.045 L715.532,609.262 L714.341,606.208 L709.344,605.45 L707.747,604.477 L704.609,603.391 L700.189,599.676 L699.85,599.271 L700.285,595.386 L700.546,594.882 L699.658,590.995 L698.114,590.161 L695.203,587.723 L690.547,587.493 L690.62,587.79 L690.546,588.085 L687.57,590.295 L687.126,590.176 L685.676,588.647 L681.92,585.332 L680.937,585.398 L680.882,585.412 L678.584,590.43 L676.179,590.165 L674.165,590.194 L672.264,595.072 L671.443,597.807 L670.971,599.77 L666.982,604.562 L666.666,607.736 L666.684,608.142 L666.615,608.487 L666.4,609.322 L661.83,613.145 L659.308,609.234 L658.61,609.328 L656.897,610.14 L656.917,609.267 L652.307,607.448 L650.158,604.418 L648.36,604.6 L647.397,608.961 L647.203,609.447 L642.314,614.137 L637.96,616.922 L633.561,619.149 L632.923,620.076 L632.737,618.828 L633.386,618.529 L633.151,615.041 L632.245,613.812 L628.363,609.476 L627.574,608.293 L626.586,602.654 L623.528,602.079 L618.759,601.287 L613.863,601.669 L611.872,599.728 L612.98,594.943 L614.125,592.779 L617.126,590.035 L618.925,588.502 L623.834,585.982 L626.208,585.269 L628.47,582.468 L629.665,580.583 L632.29,575.767 L633.253,572.07 L633.615,571.02 L635.546,565.647 L638.38,562.311 L639.686,561.341 L642.795,558.021 L643.782,556.651 L642.565,553.398 L642.524,551.756 L641.418,546.95 L642.843,544.081 L642.944,542.14 L642.551,537.251 L640.608,532.642 L639.914,527.8 L643.152,524.851 L646.855,522.974 L647.717,521.185 L652.545,520.393 L654.33,518.405 L657.286,517.133 L661.994,516.112 L664.465,513.646 L666.282,508.948 L663.613,503.676 L665.786,499.303 L666.683,497.981 L670.235,494.634 L671.565,492.754 L674.41,489.77 L675.009,485.024 L676.424,482.639 L680.019,480.162 L681.247,478.948 L685.416,480.587 L685.81,482.014 L690.598,480.959 L694.015,485.974 L695.961,485.603 L698.023,485.018 L698.594,485.133 L700.145,486.703 L704.929,488.834 L706.87,489.859 L707.193,489.851 L707.197,489.865 L709.691,489.91 L709.815,489.813 L714.945,485.713 L716.287,484.98 L719.219,481.222 L724.063,481.709 L729.442,482.633 L730.132,485.254 L732.993,489.895 L733.586,490.76 L738.596,490.322 L739.665,489.826 L743.55,488.952 L747.788,484.983 L747.885,484.056 L747.848,483.854 L747.909,482.785 L747.869,481.138 L747.673,480.15 L747.888,479.999 L752.824,477.135 L755.48,475.441 L757.95,474.303 L759.512,475.646 L760.514,476.937" class="Boeun"/><path fill-rule="evenodd" vector-effect="none" d="M683.371,587.175 L684.996,587.763 L685.417,588.129 L689.949,588.316 L690.616,587.852 L694.433,586.652 L695.877,588.041 L699.545,590.972 L700.197,592.893 L699.669,597.657 L700.775,602.599 L704.387,603.25 L709.036,605.224 L713.562,605.801 L716.481,607.136 L716.435,612.018 L718.526,613.643 L720.433,616.964 L723.092,619.176 L726.401,621.477 L727.912,621.646 L728.026,621.397 L731.642,621.434 L732.649,622.189 L737.421,623.315 L740.324,621.352 L742.498,621.192 L746.202,621.704 L747.077,622.152 L752.26,623.397 L756.584,623.589 L761.436,624.187 L764.853,626.448 L766.153,626.647 L770.927,626.923 L775.714,628.057 L779.081,631.003 L780.604,632.23 L785.29,632.927 L790.02,633.608 L794.846,633.246 L799.534,632.582 L804.651,634.191 L809.327,634.342 L810.285,635.801 L813.024,640.582 L810.329,645.564 L809.054,649.805 L809.114,650.136 L808.948,650.51 L804.171,651.295 L802.121,654.986 L799.199,657.768 L795.99,659.714 L794.686,660.678 L792.222,664.492 L789.814,669.244 L789.446,669.172 L789.307,669.228 L785.126,671.948 L781.169,674.072 L780.203,674.566 L775.47,676.783 L774.981,673.564 L774.236,674.238 L770.801,675.559 L765.842,678.855 L762.185,683.623 L761.206,687.357 L758.268,688.601 L756.527,688.239 L756.403,687.982 L755.009,688.347 L754.768,688.292 L753.895,688.354 L753.719,688.245 L751.734,686.803 L748.411,688.757 L746.935,690.87 L745.597,693.248 L744.521,698.791 L742.09,701.528 L737.144,701.189 L732.53,699.824 L728.855,697.811 L727.839,697.038 L726.02,697.893 L723.054,701.379 L718.617,702.655 L718.224,702.908 L718.375,704.69 L718.293,705.748 L713.364,707.621 L709.949,712.254 L708.729,713.814 L707.69,717.081 L706.723,721.76 L703.937,724.268 L702.74,726.581 L700.679,731.306 L699.162,731.578 L694.337,732.254 L690.278,730.956 L689.567,730.066 L684.839,731.071 L684.765,731.499 L684.89,731.968 L684.743,732.417 L684.975,735.14 L685.695,737.341 L684.56,739.375 L684.072,741.096 L684.702,746.101 L684.878,746.429 L685.561,750.435 L686.463,755.244 L684.517,757.479 L684.857,759.042 L684.83,759.244 L685.121,759.32 L685.766,759.996 L685.809,765.393 L684.363,767.135 L680.008,764.636 L675.104,760.951 L670.503,760.326 L668.915,759.886 L665.568,758.759 L660.758,757.891 L656.131,756.954 L655.352,755.159 L654.091,750.363 L656.216,747.592 L657.109,745.553 L656.659,740.685 L656.145,740.412 L656.199,739.172 L656.104,736.081 L652.536,731.02 L651.042,731.047 L650.715,731.307 L650.42,731.176 L646.681,726.111 L646.625,726.06 L644.136,726.587 L644.035,726.521 L641.836,725.612 L639.995,726.57 L637.008,728.599 L631.53,730.654 L629.437,726.395 L630.488,721.738 L627.432,720.353 L623.153,716.968 L622.646,714.039 L617.802,716.621 L616.816,716.974 L612.85,720.954 L609.504,721.797 L608.415,722.136 L603.608,722.441 L600.013,721.729 L598.742,717.989 L598.194,716.632 L598.497,712.16 L596.478,707.227 L598.735,702.51 L598.941,698.856 L600.005,697.806 L603.324,692.943 L601.586,688.108 L599.232,683.532 L602.752,678.741 L601.393,673.916 L602.305,669.015 L603.948,667.804 L605.529,664.417 L604.483,659.618 L605.06,654.841 L608.868,650.572 L611.009,650.077 L613.222,649.757 L613.131,649.061 L613.328,648.739 L616.031,645.28 L616.965,640.428 L618.044,635.654 L617.838,634.37 L617.289,630.913 L617.263,626.129 L618.048,623.624 L620.004,621.32 L622.858,618.936 L627.877,617.862 L632.432,618.561 L637.721,617.038 L639.28,616.634 L641.948,614.433 L644.873,611.836 L646.718,610.108 L647.749,607.023 L651.555,606.54 L652.066,607.143 L653.536,607.08 L654.299,607.122 L656.342,607.47 L659.727,611.888 L661.03,612.911 L665.117,611.734 L665.886,610.493 L666.735,607.033 L668.512,602.244 L670.631,600.465 L671.865,597.54 L672.781,592.753 L675.41,589.946 L679.514,587.606 L680.467,586.376 L683.371,587.175" class="Okcheon"/><path fill-rule="evenodd" vector-effect="none" d="M788.613,670.293 L787.739,673.241 L787.024,674.612 L788.294,677.424 L788.972,679.112 L789.378,683.351 L791.201,688.638 L791.815,692.973 L792.241,697.856 L792.962,698.548 L794.567,697.578 L798.017,696.577 L802.522,696.711 L807.612,697.822 L809.693,696.773 L811.242,692.751 L812.095,690.284 L813.687,687.364 L816.838,683.632 L817.331,683.041 L821.713,684.21 L821.436,686.919 L821.879,688.597 L826.521,692.98 L831.96,694.773 L836.004,696.447 L836.727,698.059 L840.746,702.573 L844.644,707.219 L845.642,709.685 L850.312,711.836 L850.49,712.004 L855.105,713.853 L859.711,711.442 L860.441,711.034 L859.798,708.138 L860.189,707.011 L864.799,705.38 L869.325,702.389 L869.451,702.337 L871.87,702.471 L873.307,702.354 L874.411,701.4 L878.988,700.127 L882.363,702.477 L884.424,702.304 L886.488,703.189 L888.756,705.026 L892.626,707.362 L893.286,707.693 L896.62,712.32 L893.137,713.654 L891.396,716.765 L888.478,720.329 L888.528,720.719 L888.95,721.654 L891.955,726.332 L893.298,727.908 L893.717,731.261 L893.246,731.931 L893.367,732.522 L896.967,735.982 L898.173,736.185 L899.106,740.841 L902.483,745.451 L902.917,745.55 L902.764,746.328 L897.91,748.09 L894.296,750.543 L893.145,750.863 L892.661,750.116 L888.269,745.411 L888,745.369 L883.63,741.964 L878.784,741.326 L874.138,742.068 L869.373,745.177 L869.419,745.262 L869.39,745.394 L869.334,745.437 L864.553,746.398 L862.09,750.194 L859.665,752.432 L859.467,755.009 L859.912,756.307 L862.077,759.874 L863.267,764.863 L864.626,767.968 L865.68,769.353 L867.419,774.125 L869.447,775.295 L869.22,778.425 L868.99,778.971 L866.756,784.248 L865.828,788.478 L866.42,793.263 L864.07,795.038 L860.342,798.102 L859.784,798.435 L854.871,801.385 L854.727,802.762 L855.087,808.06 L854.797,813.255 L851.655,817.052 L850.718,822.128 L851.79,826.926 L851.945,831.655 L850.11,833.835 L847.512,836.17 L845.196,840.566 L844.678,841.02 L840.265,844.641 L838.626,845.907 L835.853,846.739 L833.278,845.454 L830.883,844.236 L826.148,845.818 L821.517,850.412 L821.384,850.535 L816.715,855.1 L815.089,855.516 L811.721,856.197 L810.214,860.381 L806.971,864.366 L806.692,864.833 L805.642,864.758 L802.253,864.139 L798.139,859.468 L797.658,858.891 L793.962,854.699 L792.786,853.954 L787.919,855.514 L783.35,856.264 L778.491,858.824 L776.549,860.07 L773.428,860.878 L768.673,862.66 L764.217,863.259 L763.664,864.864 L759.439,869.536 L759.38,869.62 L757.29,869.527 L754.63,869.224 L753.181,869.6 L749.741,871.238 L745.062,871.408 L743.484,869.532 L745.174,866.018 L745.17,864.875 L745.156,864.775 L740.345,863.643 L735.319,860.978 L731.36,859.927 L730.835,859.296 L726.541,860.189 L726.506,860.004 L725.878,859.107 L721.252,857.667 L716.271,856.8 L711.668,855.919 L711.515,855.183 L709.055,850.129 L709.025,845.518 L706.947,841.51 L706.181,840.535 L702.083,840.69 L701.665,841.016 L697.177,844.522 L695.808,845.748 L695.739,850.553 L692.453,855.327 L691.893,854.961 L689.138,850.484 L687.833,846.101 L687.429,845.644 L683.902,840.888 L682.966,837.67 L681.79,836.141 L678.207,834.733 L676.085,830.631 L675.43,826.323 L673.499,824.14 L670.838,821.748 L668.477,819.891 L667.038,817.002 L666.867,812.016 L667.115,807.247 L663.915,803.915 L663.109,802.529 L661.299,802.716 L660.905,802.704 L658.869,800.038 L657.136,797.625 L654.342,794.95 L653.282,793.093 L652.707,788.378 L653.224,783.567 L654.422,780.322 L655.333,778.764 L658.328,773.509 L658.253,769.181 L655.512,764.479 L654.373,763.322 L654.432,762.232 L654.568,759.572 L659.575,757.618 L664.202,758.631 L667.667,759.798 L668.818,759.792 L673.594,761.867 L678.442,763.429 L680.008,764.636 L683.152,766.75 L686.006,764.475 L685.585,759.686 L686.69,754.635 L685.764,749.711 L684.3,745.367 L684.116,740.503 L684.975,735.14 L686.387,730.345 L688.358,729.033 L690.794,731.49 L692.825,732.067 L697.808,732.15 L700.925,731 L702.19,728.156 L702.096,727.943 L702.207,726.963 L703.034,726.209 L706.793,721.492 L706.801,721.523 L706.804,721.463 L707.079,720.29 L707.584,716.678 L707.537,716.726 L707.528,716.721 L710.556,711.373 L712.197,707.424 L713.714,707.115 L716.741,705.79 L718.646,702.313 L721.327,701.396 L726.187,697.85 L726.464,697.545 L728.855,697.811 L730.953,699.436 L735.748,700.603 L740.41,702.174 L740.901,702.401 L741.414,702.319 L744.784,697.487 L745.337,693.67 L745.78,692.711 L748.664,687.997 L749.969,687.5 L753.155,688.099 L754.768,688.292 L755.369,687.907 L756.527,688.239 L758.564,687.912 L759.865,687.257 L761.984,683.154 L764.589,682.444 L766.919,678.166 L769.077,675.662 L773.999,674.607 L774.477,673.493 L775.062,674.108 L778.636,674.439 L783.421,673.849 L783.708,673.556 L788.201,670.456 L788.613,670.293" class="Yeongdong"/><path fill-rule="evenodd" vector-effect="none" d="M572.823,209.987 L574.512,209.918 L574.911,210.242 L576.925,214.987 L576.53,219.642 L576.663,224.346 L577.205,229.126 L577.434,233.9 L579.452,235.011 L579.444,235.353 L579.482,236.484 L580.069,238.646 L580.201,243.394 L579.446,243.914 L578.957,243.322 L575.47,243.465 L575.498,248.384 L579.527,252.519 L584.246,252.195 L584.824,252.965 L586.143,257.775 L589.061,260.26 L593.799,261.648 L598.96,258.297 L603.379,261.608 L603.766,262.834 L605.688,262.47 L606.953,262.522 L608.146,264.07 L611.551,267.31 L612.912,268.308 L615.936,272.223 L617.708,275.789 L618.453,276.918 L618.584,276.817 L618.898,276.833 L618.951,276.789 L622.771,276.691 L622.837,276.962 L627.273,280.625 L628.269,281.748 L632.017,284.864 L633.118,286.414 L631.912,287.637 L632.054,289.163 L633.143,291.612 L637.309,295.883 L641.586,295.425 L641.906,296.02 L646.424,298.663 L649.134,300.833 L647.962,305.512 L646.278,306.338 L644.737,310.334 L645.785,315.189 L642.383,319.828 L641.31,324.057 L640.529,324.82 L641.215,329.583 L641.717,331.482 L644.346,334.223 L641.338,337.03 L636.623,338.138 L633.27,339.278 L631.381,340.943 L626.956,341.936 L624.771,344.047 L626.91,348.783 L627.283,349.355 L632.037,350.826 L634.473,353.293 L636.227,358.109 L636.958,360.712 L638.473,363.075 L636.518,364.516 L631.889,365.967 L627.195,367.423 L626.256,367.614 L622.347,368.913 L617.621,370.34 L612.61,371.193 L608.087,372.099 L608.184,371.479 L608.883,367.537 L608.052,365.148 L602.508,363.65 L598.884,367.71 L598.199,367.255 L593.626,366.602 L593.857,367.171 L593.718,367.407 L592.977,367.906 L588.956,370.514 L584.152,370.283 L582.061,372.529 L579.263,375.139 L577.57,377.168 L577.238,381.952 L574.614,383.903 L572.213,381.757 L570.455,381.936 L569.721,382.402 L565.108,382.93 L564.432,381.556 L561.397,377.075 L560.295,374.959 L559.3,372.228 L555.466,367.88 L555.125,367.597 L554.938,367.628 L554.384,367.552 L554.074,367.677 L554.036,367.585 L550.787,363.689 L549.819,362.539 L548.815,358.021 L550.953,354.155 L551.492,352.942 L550.432,350.853 L547.995,348.283 L545.786,345.631 L543.026,343.442 L541.197,341.215 L536.228,339.536 L532.48,338.284 L531.517,337.234 L528.025,334.107 L526.497,330.808 L521.501,330.705 L516.979,330.574 L515.352,329.156 L515.615,324.438 L516.962,319.748 L517.1,314.807 L512.474,311.753 L507.775,311.147 L503.004,311.425 L501.297,310.176 L503.162,305.296 L502.999,302.169 L503.207,300.704 L502.87,300.209 L503.117,297.704 L502.483,296.141 L501.985,295.835 L498.148,292.16 L497.434,291.072 L493.421,289.291 L492.283,286.191 L493.497,284.598 L495.715,281.607 L498.039,276.694 L498.381,276.254 L498.452,271.903 L497.929,271.489 L496.281,267.097 L498.365,264.495 L503.25,264.103 L505.479,262.473 L507.826,261.047 L512.636,259.672 L514.792,257.704 L517.707,256.095 L520.602,252.792 L522.138,250.93 L526.963,249.746 L531.937,251.646 L536.474,251.646 L539.459,248.05 L541.303,244.854 L543.238,243.348 L546.027,240.808 L550.801,240.015 L550.627,237.812 L548.16,233.638 L545.833,232.223 L542.854,228.755 L545.637,224.069 L546.208,223.373 L547.365,219.364 L550.97,217.966 L555.732,218.158 L560.445,216.802 L565.204,216.095 L568.833,214.708 L569.915,214.35 L572.513,209.872 L572.823,209.987" class="Jincheon"/><path fill-rule="evenodd" vector-effect="none" d="M763.856,252.385 L766.176,253.227 L767.357,254.732 L771.117,256.86 L775.926,255.385 L780.505,257.258 L780.55,259.572 L780.409,260.378 L780.641,260.586 L785.398,264.585 L785.888,269.108 L785.156,270.005 L785.648,271.73 L784.948,273.165 L784.37,273.866 L785.194,275.825 L790.06,277.811 L792.039,278.684 L794.89,281.767 L795.416,283.897 L799.679,285.681 L805.373,286.552 L807.279,288.338 L811.142,289.606 L813.928,288.824 L814.861,288.071 L818.461,288.585 L818.734,288.96 L821.31,293.033 L822.146,292.589 L823.318,293.024 L823.462,293.093 L828.291,295.673 L832.357,292.798 L832.969,291.576 L837.854,291.571 L842.64,291.952 L844.247,292.953 L842.504,296.967 L842.201,297.792 L842.618,301.589 L844.706,303.052 L847.338,305.162 L849.485,307.317 L852.828,309.942 L853.342,312.023 L853.156,316.858 L856.02,321.619 L856.938,323.069 L857.461,326.393 L856.79,327.338 L855.107,331.15 L856.983,333.688 L860.533,336.29 L861.696,339.098 L865.633,340.886 L867.068,341.245 L871.366,342.765 L876.023,344.979 L881.298,342.991 L882.598,340.596 L882.547,335.815 L886.152,332.861 L891.024,335.375 L895.293,334.832 L897.146,336.484 L899.847,337.179 L901.508,340.784 L899.6,345.467 L899.924,349.311 L900.164,350.259 L899.77,351.6 L900.022,352.185 L899.686,354.172 L898.715,355.02 L896.36,360.372 L894.659,361.166 L895.073,362.835 L894.784,364.107 L894.845,364.805 L893.761,369.542 L890.756,374.552 L890.194,375.597 L888.018,378.93 L887.763,384.061 L890.656,386.714 L892.894,388.677 L895.2,389.843 L898.65,393.499 L900.188,395.596 L903.134,398.095 L904.684,399.284 L907.403,402.908 L909.352,407.575 L909.41,407.819 L909.248,408.217 L904.475,410.33 L899.377,410.293 L895,409.006 L893.657,407.557 L890.221,405.916 L885.184,403.039 L883.458,402.366 L880.343,398.384 L879.861,397.691 L875.69,396.982 L875.203,398.286 L872.26,403.133 L871.169,404.346 L866.163,404.051 L861.239,403.006 L860.571,402.7 L856.633,398.953 L855.864,397.705 L851.545,394.239 L850.102,392.358 L847.436,393.839 L846.774,394.708 L846.495,398.038 L843.498,402.878 L843.758,407.671 L842.44,411.58 L837.62,411.514 L834.659,413.115 L834.109,417.291 L832.779,422.091 L830.447,421.892 L827.972,421.181 L823.266,420.795 L818.424,420.622 L813.742,421.364 L810.699,421.906 L809.038,424.353 L807.795,426.787 L803.97,427.681 L804.474,428.6 L809.091,429.986 L814.569,428.665 L819.031,429.042 L823.664,430.789 L824.534,431.503 L826.778,437.02 L828.233,436.93 L833.039,436.763 L834.655,441.651 L835.64,447 L837.775,447.305 L838.4,451.136 L837.569,452.207 L835.796,455.428 L836.617,460.193 L834.588,465.616 L834.837,469.91 L832.811,471.033 L830.535,474.776 L830.986,479.229 L827.715,480.438 L827.456,477.824 L824.999,474.272 L823.124,469.714 L822.73,468.838 L820.058,464.835 L818.494,464.115 L813.618,463.562 L811.397,460.108 L811.096,455.336 L809.066,452.688 L807.982,450.419 L806.796,445.456 L804.082,445.72 L803.554,445.986 L801.456,450.687 L799.022,455.127 L798.019,455.521 L794.702,459.45 L789.791,459.871 L789.234,460.144 L790.257,461.001 L790.267,465.048 L789.887,465.445 L790.001,467.215 L791.054,470.008 L794.853,472.676 L794.169,474.319 L793.639,474.628 L792.659,474.097 L789.553,474.888 L785.038,476.667 L781.753,474.416 L780.404,474.197 L779.659,474.744 L776.977,474.363 L775.376,473.745 L775.5,474.48 L770.811,477.626 L768.431,479.247 L765.89,481.174 L762.26,479.2 L761.124,478.196 L758.236,474.417 L755.923,474.218 L755.751,474.682 L751.725,477.299 L748.551,479.39 L747.461,479.202 L746.953,477.748 L745.293,474.226 L741.628,470.746 L740.046,469.567 L737.393,467.494 L737.461,466.141 L737.405,465.956 L736.426,464.832 L732.619,461.052 L732.441,459.98 L727.959,455.188 L727.704,454.95 L723.628,450.368 L722.994,448.667 L718.097,448.891 L716.273,445.774 L716.241,440.969 L718.45,439.49 L718.295,439.287 L718.469,437.114 L720.188,436.226 L723.284,433.546 L724.558,431.363 L723.039,428.754 L723.114,427.975 L723.034,427.409 L722.068,426.482 L718.121,423.153 L717.686,421.698 L715.788,417.059 L713.048,415.546 L711.924,412.076 L708.321,409.302 L705.713,407.494 L703.908,403.299 L699.176,404.024 L697.182,402.71 L694.302,399.698 L692.78,397.851 L689.478,395.182 L686.074,393.224 L684.959,393.258 L684.607,393.341 L679.85,395.133 L677.867,393.125 L676.716,388.343 L676.095,383.64 L675.231,382.21 L672.139,378.86 L670.144,376.493 L670.656,374.108 L672.317,369.327 L670.431,365.572 L669.713,364.346 L668.406,359.392 L670.623,357.381 L671.816,355.009 L675.402,354.51 L679.388,349.991 L675.328,345.311 L675.299,341.424 L674.483,340.668 L672.914,335.77 L673.483,331.107 L675.343,326.188 L678.065,321.438 L678.041,316.726 L680.202,312.805 L680.851,311.91 L685.082,309.98 L689.71,310.658 L692.613,312.041 L694.515,313.915 L699.258,315.431 L701.748,311.996 L703.047,307.109 L704.125,303.418 L705.214,302.346 L706.91,297.571 L708.929,297.103 L710.221,298.006 L713.814,299.536 L718.413,298.421 L723.18,297.448 L725.672,297.768 L728.108,297.598 L729.766,297.784 L733.201,298.802 L737.5,301.448 L742.236,300.656 L747.234,300.01 L752.182,297.961 L752.385,297.653 L756.732,296.794 L757.301,291.969 L756.859,288.042 L759.362,283.188 L756.366,281.574 L756.54,279.777 L761.308,281.798 L762.603,278.536 L761.285,275.106 L760.571,273.768 L756.487,273.409 L754.428,269.01 L756.615,266.973 L757.343,263.608 L756.526,262.841 L756.53,262.67 L757.134,259.39 L760.752,254.685 L761.314,253.088 L763.856,252.385" class="Goesan"/><path fill-rule="evenodd" vector-effect="none" d="M673.039,115.747 L677.789,116.614 L682.49,118.047 L684.134,120.175 L684.517,119.909 L685.064,120.163 L687.401,123.518 L688.782,125.036 L692.003,125.418 L696.934,127.381 L701.575,127.758 L706.706,125.627 L707.603,124.759 L707.855,125.072 L711.484,126.597 L715.781,129.681 L715.861,129.985 L715.718,130.169 L716.063,132.227 L717.814,134.568 L720.953,136.219 L721.8,139.504 L721.118,144.007 L720.494,144.481 L715.46,147.804 L712.52,148.793 L710.61,149.539 L709.965,154.35 L708.51,158.426 L706.047,162.711 L706.002,163.408 L701.505,165.787 L701.233,167.895 L701.612,168.025 L703.586,172.751 L704.892,177.79 L705.505,182.372 L701.471,187.05 L696.501,190.367 L695.34,191.943 L692.382,196.567 L691.605,197.111 L691.312,201.761 L687.533,206.328 L686.984,207.27 L687.218,207.98 L686.904,208.924 L687.211,209.263 L688.476,210.914 L691.864,215.681 L690.089,215.644 L688.034,215.706 L687.119,216.58 L685.727,220.609 L685.094,225.604 L685.834,230.108 L687.308,231.463 L691.986,232.3 L693.525,229.96 L691.935,228.747 L691.987,227.917 L696.961,227.24 L701.768,227.217 L703.143,230.051 L706.487,231.524 L708.746,234.805 L711.186,235.693 L713.127,239.744 L715.845,242.032 L718.523,244.442 L721.027,245.025 L725.578,245.376 L730.204,248.369 L731.177,249.262 L732.51,248.921 L735.54,246.989 L739.773,247.573 L741.228,249.181 L742.669,254.061 L744.791,257.571 L747.196,258.693 L749.294,261.004 L754.262,259.577 L757.346,263.592 L753.934,267.758 L753.844,268.24 L754.199,268.684 L756.298,273.087 L758.384,272.873 L759.116,272.901 L760.368,273.008 L762.499,277.81 L758.799,279.335 L758.606,282.558 L758.995,282.72 L758.738,285.772 L756.826,287.36 L757.551,292.946 L756.281,296.973 L753.548,297.347 L749.168,298.536 L744.451,299.157 L739.475,301.491 L734.574,298.511 L730.102,297.877 L725.278,297.252 L720.592,298.597 L715.688,298.412 L710.965,298.38 L709.342,296.858 L709.066,296.946 L706.166,298.085 L705.194,301.678 L702.827,306.661 L701.842,311.466 L701.48,313.349 L698.601,316.118 L697.673,315.867 L696.521,314.937 L691.788,311.815 L690.164,310.919 L687.159,310.063 L682.297,311.129 L681.84,311.414 L678.285,316.286 L677.591,317.175 L673.488,320.935 L672.801,321.553 L670.263,325.532 L668.015,325.841 L664.52,325.525 L663.893,320.632 L664.661,315.81 L663.234,312.818 L658.18,315.802 L655.908,315.979 L655.07,315.868 L653.721,313.549 L649.723,310.974 L648.826,310.665 L646.345,311.543 L644.178,311.739 L644.402,311.437 L644.555,310.932 L645.412,306.378 L649.062,304.025 L649.029,301.624 L648.77,300.546 L643.927,297.915 L642.209,296.746 L639.289,295.217 L639.418,295.428 L638.978,295.622 L634.565,293.571 L633.33,291.815 L632.428,286.894 L629.804,283.79 L628.767,282.409 L624.975,278.992 L623.198,277.701 L619.599,276.729 L616.149,272.977 L615.49,271.164 L612.79,268.063 L610.728,265.453 L607.983,263.406 L605.888,262.388 L601.143,259.568 L600.362,258.642 L596.332,258.743 L591.531,260.048 L586.886,258.63 L586.844,258.581 L586.657,258.662 L586.539,258.515 L584.73,253.778 L582.023,252.55 L577.263,252.346 L575.537,248.592 L575.669,244.067 L577.318,242.367 L580.643,239.487 L579.279,234.715 L577.283,233.632 L577.321,230.575 L577.561,229.856 L577.263,229.455 L576.451,225.205 L577.451,221.948 L577.285,221.681 L577.355,221.597 L577.26,220.476 L577.183,220.427 L577.196,215.547 L577.442,215.338 L577.128,215.155 L576.202,210.859 L577.248,205.778 L577.441,205.713 L582.17,203.374 L582.58,201.269 L581.845,199.152 L581.406,196.458 L582.227,194.624 L582.135,191.755 L582.021,191.716 L582.187,188.654 L583.36,186.84 L586.983,184.573 L586.687,183.103 L586.999,182.651 L587.855,182.202 L588.159,182.37 L591.848,182.342 L594.326,182.092 L594.952,182.269 L595.663,182.207 L596.425,181.5 L597.507,182.222 L601.607,185.334 L606.235,185.991 L609.863,182.18 L610.995,180.419 L615.517,180.86 L620.328,180.915 L621.497,182.253 L625.104,184.182 L629.398,187.022 L629.899,187.203 L634.635,190.171 L638.997,186.887 L639.436,186.515 L639.865,181.991 L639.343,180.138 L638.713,177.281 L639.641,175.776 L641.594,172.65 L644.296,169.109 L645.93,167.856 L646.719,167.904 L648.045,167.863 L649.027,168.352 L654.193,169.012 L658.511,171.989 L659.733,167.674 L658.494,165.942 L656.91,163.003 L658.634,159.813 L663.372,160.041 L665.572,158.285 L668.198,157.249 L672.892,154.54 L674.234,153.514 L675.652,148.466 L675.915,143.903 L675.008,139.109 L675.41,134.276 L676.33,129.601 L676.982,124.77 L673.504,119.881 L672.828,119.049 L671.874,115.282 L672.582,115.347 L672.842,115.726 L673.039,115.747" class="Eumseong"/><path fill-rule="evenodd" vector-effect="none" d="M1072.74,111.04 L1073.19,111.266 L1077.76,115.341 L1078.13,115.302 L1082.09,120.076 L1082.82,122.203 L1082.26,123.844 L1082.29,124.982 L1079.67,129.928 L1082.78,131.161 L1086.96,134.324 L1087.74,134.747 L1092.45,139.365 L1093.23,143.875 L1097.14,146.888 L1099.21,143.656 L1101.86,142.033 L1104.54,143.876 L1105.9,143.797 L1106.62,142.956 L1111.43,141.895 L1116.18,142.491 L1122.02,142.27 L1125.15,139.028 L1125.92,138.07 L1129.26,133.784 L1130.52,132.574 L1134.64,134.344 L1135.38,135.016 L1139.01,139.079 L1140.2,139.534 L1141.53,143.879 L1145.3,147.223 L1149.85,147.936 L1151.14,148.652 L1153.53,154.025 L1154.7,155.25 L1159.68,156.995 L1164.1,157.171 L1169.09,155.979 L1172.14,158.254 L1173.59,159.672 L1178.34,160.61 L1183.17,162.708 L1187.96,159.585 L1190.62,162.966 L1192.14,162.9 L1192.63,162.134 L1197.15,157.986 L1197.53,157.761 L1200.76,158.277 L1202.59,160.148 L1202.34,162.967 L1207.15,166.601 L1211.32,168.015 L1211.87,168.46 L1214.72,172.752 L1211.7,174.702 L1210.17,177.617 L1207.18,182.196 L1206.75,183.053 L1205.6,187.464 L1203.12,186.405 L1201.94,185.312 L1199.58,181.854 L1196.51,180.62 L1192.53,179.471 L1192.09,182.178 L1187.71,185.741 L1186.43,186.851 L1185.5,186.745 L1182.68,186.017 L1178.08,187.68 L1173.06,191.054 L1172.2,191.638 L1171.85,191.576 L1171.8,191.674 L1170.51,196.943 L1173.71,200.114 L1173.5,201.637 L1172.08,205.965 L1168.7,209.389 L1165.83,210.93 L1164.39,215.908 L1163.68,216.461 L1158.97,219.614 L1156.93,220.315 L1154.25,221.36 L1149.36,221.538 L1144.8,223.334 L1143.71,225.843 L1143.22,229.856 L1139.94,232.267 L1139.05,234.678 L1135.11,237.119 L1130.19,239.172 L1129.28,239.748 L1125.72,243.08 L1122.2,244.273 L1120.93,245.258 L1117,248.993 L1115.9,250.114 L1116.24,252.541 L1115.93,253.421 L1115.7,253.88 L1114.65,258.737 L1111.4,260.121 L1111.42,260.287 L1111.39,260.322 L1106.56,263.082 L1105.59,263.412 L1105.46,268.197 L1106.67,270.067 L1106.62,270.256 L1106.1,273.065 L1104.64,278.045 L1102.22,282.782 L1101.71,283.925 L1098.25,287.381 L1097.71,292.127 L1096.89,294.453 L1095.69,297.29 L1097.69,298.141 L1102.35,299.129 L1104.78,301.674 L1106.88,303.458 L1108.91,306.658 L1108.58,311.082 L1109.17,315.936 L1105.77,321.188 L1101.6,325.202 L1101.38,325.585 L1100.61,330.84 L1097.97,334.985 L1097.07,336.869 L1097.12,337.441 L1097,337.852 L1094.6,340.179 L1092.23,339.937 L1086.57,340.179 L1084.39,339.699 L1082.17,339.149 L1077.75,338.675 L1073.17,339.279 L1072.77,339.828 L1068.86,344.66 L1068.09,345.415 L1063.56,346.724 L1060.88,344.358 L1058.39,340.089 L1054.52,339.36 L1053.4,339.12 L1049.18,337.588 L1043.88,337.637 L1039.74,337.338 L1038.55,334.803 L1035.7,330.003 L1034.91,329.451 L1030.19,326.679 L1027.61,325.189 L1025.3,321.815 L1024.66,320.304 L1022.22,315.668 L1020.61,311.769 L1019.58,311.052 L1018.65,311.091 L1018.37,311.056 L1015.84,310.044 L1011.16,306.243 L1011.06,306.202 L1006.15,304.773 L1001.46,302.886 L999.284,301.258 L999.424,296.508 L1001.54,294.475 L1002.79,291.803 L1001.2,290.154 L999.758,286.731 L1000.35,282.329 L999.658,277.545 L996.677,273.463 L996.274,272.824 L996.089,267.781 L995.497,262.954 L996.823,259.561 L998.248,257.705 L1001.19,253.629 L1001.92,253.148 L1002.78,253.919 L1005.09,253.685 L1006.32,252.641 L1006.28,252.573 L1006.33,252.522 L1010.42,248.875 L1010.26,243.554 L1011.09,242.597 L1011.07,242.032 L1009.22,239.035 L1007.94,234.547 L1007.37,229.685 L1006.27,226.402 L1005.87,225.058 L1006.54,223.945 L1006.76,220.134 L1006.18,219.248 L1006.4,216.51 L1006.25,215.577 L1006.17,215.484 L1006.34,214.72 L1006.22,214.608 L1004.46,210.191 L1001.52,207.328 L1000.4,205.482 L997.551,200.937 L996.435,199.985 L991.88,200.069 L988.534,196.148 L987.126,192.572 L984.814,191.483 L985.748,186.065 L985.715,181.476 L987.245,179.27 L988.747,176.752 L991.986,174.235 L995.442,172.248 L996.452,167.591 L997.164,167.212 L1001.67,166.551 L1004.35,162.936 L1006.4,161.431 L1011.36,159.06 L1012.4,158.101 L1011.13,158.245 L1011.01,158.301 L1010.88,158.146 L1007.97,153.249 L1006.3,150.316 L1006.02,148.508 L1006.75,147.314 L1010.58,143.607 L1011.16,141.024 L1014.07,138.683 L1014.85,139.103 L1016.32,139.515 L1018.08,144.548 L1020.98,146.272 L1022.28,148.789 L1026.01,150.807 L1030.37,149.694 L1030.9,148.517 L1032.02,143.745 L1030.92,138.941 L1030.17,135.912 L1030.22,134.496 L1030.23,133.963 L1030.1,133.285 L1030.29,131.088 L1030.15,130.679 L1028.87,129.102 L1030.76,125.369 L1031.48,124.484 L1034.11,119.464 L1034.64,119.978 L1034.66,119.964 L1035.16,119.585 L1039.87,117.136 L1042.6,115.052 L1043.67,115.258 L1045.22,115.559 L1045.51,115.15 L1049.3,111.187 L1054.45,111.85 L1059.08,114.943 L1059.39,115.618 L1060.88,114.994 L1064.16,113.469 L1068.72,114.766 L1068.86,115.227 L1069.61,115.106 L1072.74,111.04" class="Danyang"/><path fill-rule="evenodd" vector-effect="none" d="M648.386,310.665 L650.128,312.23 L653.621,313.522 L655,315.709 L659.678,314.815 L663.234,312.818 L664.502,311.651 L666.276,313.066 L664.4,316.137 L663.786,317.784 L664.316,322.562 L664.529,324.4 L664.448,324.733 L664.52,325.525 L664.343,326.179 L664.541,326.538 L665.307,327.405 L666.388,327.251 L669.546,326.467 L671.226,322.316 L674.285,320.258 L677.668,322.598 L675.292,327.319 L673.978,330.111 L673.438,332.205 L673.178,336.872 L674.094,340.451 L675.68,341.686 L676.276,346.465 L678.955,349.332 L678.843,351.307 L678.73,351.371 L673.975,354.35 L670.784,355.985 L669.194,358.103 L668.505,360.82 L669.23,364.314 L670.394,365.55 L671.009,365.533 L671.399,365.616 L672.163,370.331 L670.095,375.211 L673.167,380.179 L674.071,380.748 L676.327,384.726 L677.037,389.843 L677.864,394.298 L678.886,395.315 L683.629,394.783 L684.369,394.085 L686.985,394.302 L688.552,395.213 L690.732,399.291 L690.158,403.81 L689.02,409.007 L688.279,410.668 L686.546,413.611 L683.176,415.59 L679.287,412.864 L678.586,412.29 L673.812,411.404 L669.567,413.502 L669.31,413.262 L668.864,413.025 L667.09,408.196 L665.654,403.51 L664.392,398.829 L662.852,394.134 L660.77,389.34 L659.644,386.659 L654.84,386.593 L652.088,384.519 L650.463,379.787 L650.054,375.93 L648.279,375.051 L645.33,372.384 L642.591,370.2 L640.518,369.003 L639.473,365.442 L636.958,360.712 L635.735,356.776 L635.232,355.963 L633.506,351.148 L631.55,351.203 L631.179,351.12 L630.979,351.171 L630.784,351.323 L629.079,350.83 L626.004,347.738 L625.105,346.419 L626.262,342.7 L627.795,341.456 L629.46,341.902 L631.381,340.943 L636.041,337.568 L640.876,336.787 L641.338,337.03 L642.474,336.811 L645.817,331.959 L645.078,331.141 L641.161,327.158 L640.529,324.82 L640.972,324.265 L642.472,322.535 L642.234,317.619 L645.373,316.087 L645.41,312.969 L648.386,310.665" class="Jeungpyeong"/><path fill-rule="evenodd" vector-effect="none" d="M693.678,398.923 L696.445,402.101 L697.022,402.434 L701.582,405.021 L705.198,406.971 L706.346,408.155 L711.121,409.741 L712.012,411.643 L715.131,416.442 L716.027,417.334 L717.724,421.243 L720.822,424.836 L722.003,426.2 L724.316,430.8 L720.951,435.793 L720.504,436.091 L716.801,440.296 L716.694,445.119 L715.705,446.928 L716.223,447.564 L720.682,448.375 L723.944,449.86 L725.644,453.781 L727.475,454.636 L730.273,455.852 L732.206,459.543 L735.039,464.113 L735.179,464.211 L739.43,469.15 L740.046,469.567 L745.021,473.826 L747.536,478.603 L747.868,483.365 L745.022,488.244 L744.465,488.436 L739.665,489.826 L734.239,491.274 L731.676,487.979 L730.016,485.559 L730.46,484.697 L730.625,483.138 L729.823,482.564 L725.336,482.009 L720.623,481.381 L717.109,483.335 L715.663,485.441 L712.503,488.281 L710.895,489.14 L706.131,489.583 L703.871,488.009 L701.548,487.905 L701.192,488.179 L700.641,487.924 L696.586,485.599 L693.761,483.279 L691.989,481.072 L687.075,482.666 L682.343,478.674 L682.083,478.433 L681.643,478.796 L677.626,482.561 L675.786,483.307 L673.559,488.179 L672.808,492.147 L671.762,492.86 L671.637,492.781 L671.435,492.943 L667.737,497.453 L667.249,497.644 L664.004,502.423 L664.908,507.221 L664.785,512.154 L662.826,515.309 L660.241,516.738 L658.526,517.149 L653.723,519.417 L648.713,521.217 L646.891,521.672 L644.138,524.533 L641.023,526.474 L639.456,528.44 L639.488,530.316 L640.293,531.246 L641.823,536.628 L643.088,540.783 L642.255,545.396 L641.891,550.356 L644.297,554.636 L645.034,555.375 L643.979,556.272 L639.679,559.86 L639.419,561.529 L636.702,564.572 L634.659,567.636 L634.423,569.289 L632.656,574.232 L630.845,578.847 L629.864,580.108 L628.258,583.667 L625.112,585.675 L620.33,587.616 L618.925,588.502 L615.481,591.345 L613.845,593.33 L612.252,598.048 L611.101,603.144 L610.725,604.846 L610.057,607.946 L605.253,609.685 L603.973,607.389 L602.352,602.663 L601.105,599.272 L600.269,597.929 L598.461,592.719 L600.396,588.194 L601.309,587.042 L604.906,583.495 L606.326,581.081 L605.994,579.763 L605.547,578.765 L602.251,578.883 L601.045,579.359 L596.361,580.311 L593.557,578.767 L592.659,573.874 L594.924,569.249 L594.008,564.264 L592.231,564.509 L591.286,564.738 L586.864,568.053 L585.935,569.389 L584.44,575.368 L583.073,579.232 L581.999,580.366 L577.095,582.705 L572.57,580.559 L570.911,578.814 L567.751,577.812 L562.677,578.297 L560.023,578.838 L558.034,579.064 L553.025,578.825 L550.08,574.026 L551.254,569.242 L552.694,564.138 L552.234,559.388 L548.72,554.902 L548.593,554.75 L548.874,554.124 L553.68,552.732 L556.009,550.159 L555.186,544.878 L553.33,541.177 L553.251,540.495 L549.896,535.759 L553.49,533.329 L554.999,531.057 L553.383,526.392 L553.343,525.932 L550.684,521.418 L550.373,521.57 L548.642,522.457 L543.881,521.769 L541.844,521.414 L540.733,516.671 L539.041,516.053 L539.278,514.897 L539.097,513.133 L538.324,511.824 L538.579,507.151 L534.293,505.077 L529.703,507.185 L529.565,507.494 L524.437,507.823 L523.53,506.946 L519.988,506.32 L518.34,507.237 L516.862,507.098 L516.249,502.279 L515.138,501.168 L510.761,497.565 L510.451,496.791 L510.475,496.307 L510.466,496.018 L505.407,493.821 L500.875,493.972 L498.262,492.759 L499.792,488.032 L500.518,483.249 L498.45,478.502 L497.238,473.529 L495.715,470.235 L494.938,468.838 L492.413,464.034 L493.045,459.264 L491.36,458.302 L489.932,459.424 L486.55,460.06 L485.874,459.396 L486.779,455.37 L487.704,454.095 L488.854,449.67 L491.373,444.707 L491.245,444.38 L491.399,444.212 L491.226,443.911 L491.37,443.505 L496.165,442.125 L497.884,440.287 L497.892,440.304 L498.003,440.089 L500.43,435.491 L500.972,431.645 L501.185,430.577 L500.915,428.008 L498.237,425.944 L498.009,426.008 L497.141,425.91 L495.994,425.916 L491.323,423.435 L490.487,421.135 L491.393,420.051 L496.178,416.964 L498.212,416.294 L501.049,414.075 L501.034,411.471 L500.799,411.239 L500.98,409.829 L501.963,406.802 L502.317,402.06 L505.741,400.464 L508.634,397.249 L510.626,395.474 L515.713,395.818 L520.117,393.758 L519.998,392.284 L517.172,387.589 L515.235,385.537 L515.285,384.285 L515.889,382.945 L520.072,381.275 L524.828,380.709 L527.469,378.097 L529.658,376.776 L534.394,375.771 L539.197,377.478 L543.714,378.274 L544.118,378.881 L543.872,379.477 L543.947,379.725 L547.792,383.051 L548.704,384.852 L553.553,384.418 L554.298,382.923 L558.294,378.716 L562.555,378.171 L563.096,377.836 L563.739,378.24 L567.813,382.226 L572.655,382.032 L572.898,383.304 L577.369,383.912 L577.583,382.945 L577.34,382.302 L577.277,378.04 L577.57,377.168 L581.388,373.369 L582.163,372.096 L587.06,370.69 L591.578,368.527 L591.783,368.353 L596.662,366.478 L601.313,364.947 L602.42,363.607 L605.461,363.86 L606.134,363.947 L609.452,368.687 L610.842,371.712 L615.595,370.487 L620.473,369.855 L622.896,368.536 L625.175,368.001 L629.915,366.677 L634.688,364.799 L637.805,363.847 L638.524,363.874 L639.47,365.43 L640.397,368.695 L644.304,372.164 L647.669,373.496 L649.538,375.563 L651.078,378.35 L652.235,383.103 L653.949,386.143 L658.586,386.357 L660.509,387.804 L662.352,392.66 L663.362,397.215 L663.296,397.31 L663.491,398.434 L665.342,402.147 L667.348,407.099 L666.86,411.634 L668.864,413.025 L671.892,411.616 L672.977,411.726 L673.809,411.403 L677.693,411.275 L677.916,411.653 L682.679,415.663 L687.36,411.919 L688.008,411.257 L689.98,406.815 L690.034,401.764 L691.581,397.263 L692.373,396.833 L692.825,397.639 L693.678,398.923" class="Cheongju"/></g><g stroke-linecap="square" font-family="Gulim" font-size="12.5" font-style="normal" font-weight="400" fill="none" stroke="#000000" transform="matrix(0.999067,0,0,0.999067,-135.877,-47.3377)" stroke-opacity="1" stroke-width="1" stroke-linejoin="bevel"/><g stroke-linecap="square" font-family="Gulim" font-size="12.5" font-style="normal" font-weight="400" fill="none" stroke="#000000" transform="matrix(3.93333,0,0,3.93333,-135.877,-47.3377)" stroke-opacity="1" stroke-width="1" stroke-linejoin="bevel"/><g stroke-linecap="square" font-family="Gulim" font-size="12.5" font-style="normal" font-weight="400" fill="none" stroke="#000000" transform="matrix(3.93333,0,0,3.93333,-135.877,-47.3377)" stroke-opacity="1" stroke-width="1" stroke-linejoin="bevel"/><g stroke-linecap="square" font-family="Gulim" font-size="12.5" font-style="normal" font-weight="400" fill="none" stroke="#000000" transform="matrix(3.93333,0,0,3.93333,-135.877,-47.3377)" stroke-opacity="1" stroke-width="1" stroke-linejoin="bevel"/><g stroke-linecap="square" font-family="Gulim" font-size="12.5" font-style="normal" font-weight="400" fill="none" stroke="#000000" transform="matrix(1,0,0,1,0,0)" stroke-opacity="1" stroke-width="1" stroke-linejoin="bevel"/><g stroke-linecap="square" font-family="Gulim" font-size="12.5" font-style="normal" font-weight="400" fill="none" stroke="#000000" transform="matrix(3.93333,0,0,3.93333,-135.877,-47.3377)" stroke-opacity="1" stroke-width="1" stroke-linejoin="bevel"/><g stroke-linecap="square" font-family="Gulim" font-size="12.5" font-style="normal" font-weight="400" fill="none" stroke="#000000" transform="matrix(3.93333,0,0,3.93333,-135.877,-47.3377)" stroke-opacity="1" stroke-width="1" stroke-linejoin="bevel"/><g stroke-linecap="square" font-family="Gulim" font-size="12.5" font-style="normal" font-weight="400" fill="none" stroke="#000000" transform="matrix(1,0,0,1,0,0)" stroke-opacity="1" stroke-width="1" stroke-linejoin="bevel"/></g><metadata><rdfRDF xmlnsrdf="http://www.w3.org/1999/02/22-rdf-syntax-ns#" xmlnsrdfs="http://www.w3.org/2000/01/rdf-schema#" xmlnsdc="http://purl.org/dc/elements/1.1/"><rdfDescription dcformat="image/svg+xml" dctitle="" dcdate="2022-09-17T12:45:54" dcidentifier="" dcdescription=""><dccreator><rdfBag><rdfli>Will.Lee</rdfli></rdfBag></dccreator><dcpublisher><rdfBag><rdfli>QGIS 3.26.3-Buenos Aires</rdfli></rdfBag></dcpublisher><dcsubject><rdfBag/></dcsubject></rdfDescription><ccWork rdfabout=""><dcformat>image/svg+xml</dcformat><dctitle/><dcdate>2022-09-17T12:45:54</dcdate><dcidentifier/><dcdescription/><dccreator><ccAgent><dctitle>Will.Lee</dctitle></ccAgent></dccreator><dcpublisher><ccAgent><dctitle>QGIS 3.26.3-Buenos Aires</dctitle></ccAgent></dcpublisher></ccWork></rdfRDF></metadata></svg>